<svg xmlns="http://www.w3.org/2000/svg" xmlns:xlink="http://www.w3.org/1999/xlink" contentStyleType="text/css" data-diagram-type="CLASS" height="309px" preserveAspectRatio="none" style="width:450px;height:309px;background:#FFFFFF;" version="1.1" viewBox="0 0 450 309" width="450px" zoomAndPan="magnify"><title>main</title><defs/><g><g class="title" data-source-line="5"><text fill="#000000" font-family="sans-serif" font-size="14" font-weight="bold" lengthAdjust="spacing" textLength="38.8008" x="198.6246" y="22.9951">main</text></g><!--class meeting_user--><g class="entity" data-entity="meeting_user" data-source-line="7" data-uid="ent0002" id="entity_meeting_user"><rect fill="#F1F1F1" height="74.8906" rx="2.5" ry="2.5" style="stroke:#181818;stroke-width:0.5;" width="153.1348" x="174.48" y="44.2969"/><text fill="#000000" font-family="sans-serif" font-size="14" lengthAdjust="spacing" textLength="95.5391" x="203.2779" y="62.292">meeting_user</text><line style="stroke:#181818;stroke-width:0.5;" x1="175.48" x2="326.6148" y1="70.5938" y2="70.5938"/><ellipse cx="185.48" cy="84.2422" fill="#000000" rx="3" ry="3" style="stroke:#000000;stroke-width:1;"/><text fill="#000000" font-family="sans-serif" font-size="14" lengthAdjust="spacing" textLength="127.1348" x="194.48" y="87.5889">meeting_id: string</text><ellipse cx="185.48" cy="100.5391" fill="#000000" rx="3" ry="3" style="stroke:#000000;stroke-width:1;"/><text fill="#000000" font-family="sans-serif" font-size="14" lengthAdjust="spacing" textLength="99.668" x="194.48" y="103.8857">user_id: string</text><line style="stroke:#181818;stroke-width:1;" x1="175.48" x2="326.6148" y1="111.1875" y2="111.1875"/></g><!--class meetings--><g class="entity" data-entity="meetings" data-source-line="12" data-uid="ent0003" id="entity_meetings"><rect fill="#F1F1F1" height="123.7813" rx="2.5" ry="2.5" style="stroke:#181818;stroke-width:0.5;" width="252.0986" x="7" y="179.1869"/><text fill="#000000" font-family="sans-serif" font-size="14" lengthAdjust="spacing" textLength="65.2969" x="100.4009" y="197.182">meetings</text><line style="stroke:#181818;stroke-width:0.5;" x1="8" x2="258.0986" y1="205.4838" y2="205.4838"/><ellipse cx="18" cy="219.1322" fill="#000000" rx="3" ry="3" style="stroke:#000000;stroke-width:1;"/><text fill="#000000" font-family="sans-serif" font-size="14" lengthAdjust="spacing" textLength="62.1318" x="27" y="222.4789">id: string</text><line style="stroke:#181818;stroke-width:1;" x1="8" x2="258.0986" y1="229.7806" y2="229.7806"/><ellipse cx="18" cy="243.4291" fill="#000000" rx="3" ry="3" style="stroke:#000000;stroke-width:1;"/><text fill="#000000" font-family="sans-serif" font-size="14" lengthAdjust="spacing" textLength="89.0586" x="27" y="246.7757">name: string</text><ellipse cx="18" cy="259.7259" fill="#000000" rx="3" ry="3" style="stroke:#000000;stroke-width:1;"/><text fill="#000000" font-family="sans-serif" font-size="14" lengthAdjust="spacing" textLength="226.0986" x="27" y="263.0726">start_time: datetime_immutable</text><ellipse cx="18" cy="276.0228" fill="#000000" rx="3" ry="3" style="stroke:#000000;stroke-width:1;"/><text fill="#000000" font-family="sans-serif" font-size="14" lengthAdjust="spacing" textLength="219.8643" x="27" y="279.3695">end_time: datetime_immutable</text><ellipse cx="18" cy="292.3197" fill="#000000" rx="3" ry="3" style="stroke:#000000;stroke-width:1;"/><text fill="#000000" font-family="sans-serif" font-size="14" lengthAdjust="spacing" textLength="73.5205" x="27" y="295.6664">rates: json</text></g><!--class users--><g class="entity" data-entity="users" data-source-line="20" data-uid="ent0004" id="entity_users"><rect fill="#F1F1F1" height="74.8906" rx="2.5" ry="2.5" style="stroke:#181818;stroke-width:0.5;" width="150" x="294.05" y="203.6269"/><text fill="#000000" font-family="sans-serif" font-size="14" lengthAdjust="spacing" textLength="37.8301" x="350.135" y="221.622">users</text><line style="stroke:#181818;stroke-width:0.5;" x1="295.05" x2="443.05" y1="229.9238" y2="229.9238"/><ellipse cx="305.05" cy="243.5722" fill="#000000" rx="3" ry="3" style="stroke:#000000;stroke-width:1;"/><text fill="#000000" font-family="sans-serif" font-size="14" lengthAdjust="spacing" textLength="62.1318" x="314.05" y="246.9189">id: string</text><line style="stroke:#181818;stroke-width:1;" x1="295.05" x2="443.05" y1="254.2206" y2="254.2206"/><text fill="#000000" font-family="sans-serif" font-size="14" lengthAdjust="spacing" textLength="89.0586" x="300.05" y="271.2157">name: string</text></g><!--link meeting_user to meetings--><g class="link" data-entity-1="meeting_user" data-entity-2="meetings" data-source-line="25" data-uid="lnk5" id="link_meeting_user_meetings"><path codeLine="25" d="M216.79,137.4969 C216.79,155.2669 216.79,150.9069 216.79,170.9869" fill="none" id="meeting_user-meetings" style="stroke:#181818;stroke-width:1;"/><line style="stroke:#181818;stroke-width:1;" x1="216.79" x2="210.79" y1="127.4969" y2="119.4969"/><line style="stroke:#181818;stroke-width:1;" x1="216.79" x2="222.79" y1="127.4969" y2="119.4969"/><line style="stroke:#181818;stroke-width:1;" x1="216.79" x2="216.79" y1="127.4969" y2="119.4969"/><ellipse cx="216.79" cy="133.4969" fill="none" rx="4" ry="4" style="stroke:#181818;stroke-width:1;"/><line style="stroke:#181818;stroke-width:1;" x1="220.79" x2="212.79" y1="174.9869" y2="174.9869"/><line style="stroke:#181818;stroke-width:1;" x1="220.79" x2="212.79" y1="171.9869" y2="171.9869"/><line style="stroke:#181818;stroke-width:1;" x1="216.79" x2="216.79" y1="170.9869" y2="178.9869"/></g><!--link meeting_user to users--><g class="link" data-entity-1="meeting_user" data-entity-2="users" data-source-line="26" data-uid="lnk6" id="link_meeting_user_users"><path codeLine="26" d="M310.83,137.4969 C310.83,162.8069 310.83,170.0069 310.83,195.3069" fill="none" id="meeting_user-users" style="stroke:#181818;stroke-width:1;"/><line style="stroke:#181818;stroke-width:1;" x1="310.83" x2="304.83" y1="127.4969" y2="119.4969"/><line style="stroke:#181818;stroke-width:1;" x1="310.83" x2="316.83" y1="127.4969" y2="119.4969"/><line style="stroke:#181818;stroke-width:1;" x1="310.83" x2="310.83" y1="127.4969" y2="119.4969"/><ellipse cx="310.83" cy="133.4969" fill="none" rx="4" ry="4" style="stroke:#181818;stroke-width:1;"/><line style="stroke:#181818;stroke-width:1;" x1="314.83" x2="306.83" y1="199.3069" y2="199.3069"/><line style="stroke:#181818;stroke-width:1;" x1="314.83" x2="306.83" y1="196.3069" y2="196.3069"/><line style="stroke:#181818;stroke-width:1;" x1="310.83" x2="310.83" y1="195.3069" y2="203.3069"/></g><!--SRC=[VOynZy8m38Nt_0hVMgaI3BUmid9YGMAC0h68ZzgjOZEWe_-TX05QX6wplcU_zvme8Y0FTWL6Fc1MboewKZvswFHCCeGS67v8rbrGtLEq1CllnKJRaE3kEY1iiwNU6Lc7m874VLb2Hl3I2tg7KgGQX4PoyXV537-kUGAAAr3BPIomgbFIjcvySz37zNod0GcC4n-raCqRLHY3OPqyCLyi7Cg73Q34_-HSeAxWLtjv5QZbFgNFmqStUtNis_PsUvR_A3wCxm00]--></g></svg>